<svg width="145" height="39" viewBox="0 0 145 39" fill="none" xmlns="http://www.w3.org/2000/svg">
<path d="M10.2159 30.4545C8.11364 30.4545 6.30019 29.9905 4.77557 29.0625C3.26042 28.125 2.09091 26.8182 1.26705 25.142C0.452652 23.4564 0.0454547 21.4962 0.0454547 19.2614C0.0454547 17.0265 0.452652 15.0568 1.26705 13.3523C2.09091 11.6383 3.23674 10.303 4.70455 9.34659C6.18182 8.38068 7.9053 7.89773 9.875 7.89773C11.0114 7.89773 12.1335 8.08712 13.2415 8.46591C14.3494 8.8447 15.358 9.46023 16.267 10.3125C17.1761 11.1553 17.9006 12.2727 18.4403 13.6648C18.9801 15.0568 19.25 16.7708 19.25 18.8068V20.2273H2.43182V17.3295H15.8409C15.8409 16.0985 15.5947 15 15.1023 14.0341C14.6193 13.0682 13.928 12.3059 13.0284 11.7472C12.1383 11.1884 11.0871 10.9091 9.875 10.9091C8.53977 10.9091 7.38447 11.2405 6.40909 11.9034C5.44318 12.5568 4.69981 13.4091 4.17898 14.4602C3.65814 15.5114 3.39773 16.6383 3.39773 17.8409V19.7727C3.39773 21.4205 3.68182 22.8172 4.25 23.9631C4.82765 25.0994 5.62784 25.9659 6.65057 26.5625C7.6733 27.1496 8.86174 27.4432 10.2159 27.4432C11.0966 27.4432 11.892 27.3201 12.6023 27.0739C13.322 26.8182 13.9422 26.4394 14.4631 25.9375C14.9839 25.4261 15.3864 24.7917 15.6705 24.0341L18.9091 24.9432C18.5682 26.0417 17.9953 27.0076 17.1903 27.8409C16.3854 28.6648 15.3911 29.3087 14.2074 29.7727C13.0237 30.2273 11.6932 30.4545 10.2159 30.4545ZM23.7017 16.875V30H20.3494V8.18182H23.5881V11.5909H23.8722C24.3835 10.483 25.16 9.5928 26.2017 8.92045C27.2434 8.23864 28.5881 7.89773 30.2358 7.89773C31.7131 7.89773 33.0057 8.20076 34.1136 8.80682C35.2216 9.40341 36.0833 10.3125 36.6989 11.5341C37.3144 12.7462 37.6222 14.2803 37.6222 16.1364V30H34.2699V16.3636C34.2699 14.6496 33.8248 13.3144 32.9347 12.358C32.0445 11.392 30.8229 10.9091 29.2699 10.9091C28.1998 10.9091 27.2434 11.1411 26.4006 11.6051C25.5672 12.0691 24.9091 12.7462 24.4261 13.6364C23.9432 14.5265 23.7017 15.6061 23.7017 16.875ZM48.5547 38.6364C46.9354 38.6364 45.5433 38.428 44.3786 38.0114C43.2138 37.6042 42.2431 37.0644 41.4666 36.392C40.6996 35.7292 40.0888 35.0189 39.6342 34.2614L42.3047 32.3864C42.6077 32.7841 42.9912 33.2386 43.4553 33.75C43.9193 34.2708 44.5537 34.7206 45.3587 35.0994C46.1731 35.4877 47.2384 35.6818 48.5547 35.6818C50.3161 35.6818 51.7697 35.2557 52.9155 34.4034C54.0613 33.5511 54.6342 32.2159 54.6342 30.3977V25.9659H54.3501C54.1039 26.3636 53.7536 26.8561 53.299 27.4432C52.8539 28.0208 52.21 28.5369 51.3672 28.9915C50.5339 29.4366 49.407 29.6591 47.9865 29.6591C46.2251 29.6591 44.6437 29.2424 43.2422 28.4091C41.8501 27.5758 40.7469 26.3636 39.9325 24.7727C39.1276 23.1818 38.7251 21.25 38.7251 18.9773C38.7251 16.7424 39.1181 14.7964 39.9041 13.1392C40.6901 11.4725 41.7839 10.1847 43.1854 9.27557C44.5869 8.35701 46.2062 7.89773 48.0433 7.89773C49.4638 7.89773 50.5907 8.13447 51.424 8.60795C52.2668 9.07197 52.9107 9.60227 53.3558 10.1989C53.8104 10.786 54.1607 11.2689 54.407 11.6477H54.7479V8.18182H57.9865V30.625C57.9865 32.5 57.5604 34.0246 56.7081 35.1989C55.8653 36.3826 54.7289 37.2491 53.299 37.7983C51.8786 38.357 50.2971 38.6364 48.5547 38.6364ZM48.4411 26.6477C49.7857 26.6477 50.9221 26.34 51.8501 25.7244C52.7782 25.1089 53.4837 24.2235 53.9666 23.0682C54.4496 21.9129 54.6911 20.5303 54.6911 18.9205C54.6911 17.3485 54.4543 15.9612 53.9808 14.7585C53.5073 13.5559 52.8066 12.6136 51.8786 11.9318C50.9505 11.25 49.8047 10.9091 48.4411 10.9091C47.0206 10.9091 45.8369 11.2689 44.8899 11.9886C43.9524 12.7083 43.2469 13.6742 42.7734 14.8864C42.3094 16.0985 42.0774 17.4432 42.0774 18.9205C42.0774 20.4356 42.3142 21.7756 42.7876 22.9403C43.2706 24.0956 43.9808 25.0047 44.9183 25.6676C45.8653 26.321 47.0395 26.6477 48.4411 26.6477ZM63.4751 0.90909V30H60.1229V0.90909H63.4751ZM65.6151 30V8.18182H68.9673V30H65.6151ZM67.3196 4.54545C66.6662 4.54545 66.1027 4.32292 65.6293 3.87784C65.1652 3.43277 64.9332 2.89773 64.9332 2.27273C64.9332 1.64773 65.1652 1.11269 65.6293 0.667613C66.1027 0.222538 66.6662 0 67.3196 0C67.973 0 68.5317 0.222538 68.9957 0.667613C69.4692 1.11269 69.706 1.64773 69.706 2.27273C69.706 2.89773 69.4692 3.43277 68.9957 3.87784C68.5317 4.32292 67.973 4.54545 67.3196 4.54545ZM86.5618 13.0682L83.5504 13.9205C83.361 13.4186 83.0817 12.9309 82.7124 12.4574C82.3525 11.9744 81.8601 11.5767 81.2351 11.2642C80.6101 10.9517 79.8099 10.7955 78.8345 10.7955C77.4993 10.7955 76.3866 11.1032 75.4964 11.7188C74.6158 12.3248 74.1754 13.0966 74.1754 14.0341C74.1754 14.8674 74.4785 15.5256 75.0845 16.0085C75.6906 16.4915 76.6375 16.8939 77.9254 17.2159L81.1641 18.0114C83.1148 18.4848 84.5684 19.2093 85.5249 20.1847C86.4813 21.1506 86.9595 22.3958 86.9595 23.9205C86.9595 25.1705 86.5997 26.2879 85.88 27.2727C85.1697 28.2576 84.1754 29.0341 82.897 29.6023C81.6186 30.1705 80.1319 30.4545 78.4368 30.4545C76.2114 30.4545 74.3696 29.9716 72.9112 29.0057C71.4529 28.0398 70.5296 26.6288 70.1413 24.7727L73.3232 23.9773C73.6262 25.1515 74.1991 26.0322 75.0419 26.6193C75.8942 27.2064 77.0069 27.5 78.38 27.5C79.9425 27.5 81.183 27.1686 82.1016 26.5057C83.0296 25.8333 83.4936 25.0284 83.4936 24.0909C83.4936 23.3333 83.2285 22.6989 82.6982 22.1875C82.1679 21.6667 81.3535 21.2784 80.255 21.0227L76.6186 20.1705C74.6205 19.697 73.1527 18.9631 72.2152 17.9688C71.2872 16.965 70.8232 15.7102 70.8232 14.2045C70.8232 12.9735 71.1688 11.8845 71.8601 10.9375C72.5608 9.99053 73.5125 9.24716 74.7152 8.70739C75.9273 8.16761 77.3004 7.89773 78.8345 7.89773C80.9936 7.89773 82.6887 8.37121 83.9197 9.31818C85.1603 10.2652 86.041 11.5152 86.5618 13.0682ZM91.358 16.875V30H88.0057V0.90909H91.358V11.5909H91.642C92.1534 10.464 92.9205 9.56913 93.9432 8.90625C94.9754 8.2339 96.3485 7.89773 98.0625 7.89773C99.5492 7.89773 100.851 8.19602 101.969 8.79261C103.086 9.37973 103.953 10.2841 104.568 11.5057C105.193 12.7178 105.506 14.2614 105.506 16.1364V30H102.153V16.3636C102.153 14.6307 101.704 13.2907 100.804 12.3438C99.9138 11.3873 98.678 10.9091 97.0966 10.9091C95.9981 10.9091 95.0133 11.1411 94.142 11.6051C93.2803 12.0691 92.5985 12.7462 92.0966 13.6364C91.6042 14.5265 91.358 15.6061 91.358 16.875Z" fill="#222222"/>
<path d="M105.57 6.48L111.77 2.8H114.37V30H111.85V5.4L106.73 8.4L105.57 6.48ZM135.864 13.32V19.44C135.864 23.1467 135.051 25.9067 133.424 27.72C131.824 29.5067 129.651 30.4 126.904 30.4C124.158 30.4 121.971 29.5067 120.344 27.72C118.744 25.9067 117.944 23.1467 117.944 19.44V13.32C117.944 9.61333 118.758 6.86666 120.384 5.08C122.011 3.29333 124.184 2.4 126.904 2.4C129.624 2.4 131.798 3.29333 133.424 5.08C135.051 6.86666 135.864 9.61333 135.864 13.32ZM133.224 13.32C133.224 10.2 132.638 7.98667 131.464 6.68C130.318 5.34667 128.798 4.68 126.904 4.68C125.038 4.68 123.518 5.34667 122.344 6.68C121.171 7.98667 120.584 10.2 120.584 13.32V19.44C120.584 22.5333 121.171 24.76 122.344 26.12C123.518 27.4533 125.038 28.12 126.904 28.12C128.798 28.12 130.318 27.4533 131.464 26.12C132.638 24.76 133.224 22.5333 133.224 19.44V13.32ZM135.833 6.48L142.033 2.8H144.633V30H142.113V5.4L136.993 8.4L135.833 6.48Z" fill="#DF0000"/>
</svg>
